<svg id="Layer_1" data-name="Layer 1" xmlns="http://www.w3.org/2000/svg" viewBox="0 0 595.28 841.89"><defs><style>.cls-1,.cls-4{fill:#fff;}.cls-2{fill:#fff200;}.cls-3{fill:#044ee3;}.cls-4{font-size:66.06px;font-family:Stencil;}</style></defs><title>Bluemoon logo white300 ppi</title><path class="cls-1" d="M399.4,487.56l-4.47,4.38c-1.17-1.49-3.13-2.92-3.28-4.51-.13-1.37,1.81-2.93,2.84-4.4Z"/><ellipse class="cls-2" cx="303.54" cy="412.17" rx="30.34" ry="38.25"/><path class="cls-3" d="M54.62,327.47c10.26,1.41,19.93,2.7,29.6,4.07,38.9,5.49,77.74,11.79,116.71,16.24,24.85,2.84,48.27,24.5,52.28,62.62,1.28,12.16,3.07,24.23,3.53,36.86-4.42-9.33-9.31-18.36-13.19-28-10.74-26.79-28.28-37.83-51.46-40.27-31-3.26-61.91-8.07-92.66-13.93C82.39,361.78,62.91,343.81,54.62,327.47Z"/><path class="cls-3" d="M547.11,310.66c-13.82,23.59-31.28,38.76-53.22,44.06-30.34,7.32-60.91,13-91.33,19.77-15.78,3.5-28,14-35.7,32-5.52,12.84-10.66,25.93-16,38.91l-2.19-.71c2.69-20,3.61-40.7,8.51-59.78,6.16-24,21.25-37.65,41.09-42.1q72-16.14,144-32.11C543.57,310.41,544.89,310.66,547.11,310.66Z"/><path class="cls-3" d="M349.61,413.09c-.18,32-20.83,58-46,57.82-26.32-.14-46.58-25.89-46.41-59,.16-31.65,21.32-58.34,46.07-58.1C329.35,354,349.79,380.19,349.61,413.09Zm-76.38-1.35c-.4,21.08,12.42,37.42,29.91,38.12,16.32.65,30.59-16.71,30.8-37.46.21-20.24-12.8-37.6-28.64-38.22C287.69,373.49,273.65,389.94,273.23,411.74Z"/><path class="cls-3" d="M371.59,412.3c7-14.64,16.17-23.92,28.2-27.07,20.39-5.33,41-9.41,61.5-13.94,15.11-3.34,30.23-6.56,45.35-9.79,2-.43,4-.6,7.55-1.1-10,14.64-21.62,23.62-34.86,27C443.92,396.37,408.27,403.92,371.59,412.3Z"/><path class="cls-3" d="M234.53,415.8c-26.53-3.94-51.75-7.33-76.88-11.55-15.13-2.55-30.38-5.13-45.05-10.16-8.17-2.81-15.26-10.67-22.84-16.25l.94-2.8c9.15,1.12,18.32,2.1,27.46,3.37,28,3.88,55.94,7.68,83.88,11.91C215.35,392.33,225.81,400.8,234.53,415.8Z"/><path class="cls-3" d="M356.28,445.91c7.66-15.27,17.58-24.27,30.15-27.34,33-8.06,66.21-15.35,99.34-22.91.57-.13,1.22.19,2.66.46-13.62,15.72-28.79,26.36-46.07,30.8-26.93,6.91-54.08,12.43-81.14,18.52C360.12,445.69,359,445.66,356.28,445.91Z"/><path class="cls-3" d="M116.92,407.85c35.32,5.3,69.14,10.19,102.93,15.52,12.82,2,22.93,10.37,31.8,25.09-9-1.12-16.6-1.82-24.1-3-24.69-4.06-49.44-7.68-74-12.77C141.07,430.05,125.63,418.39,116.92,407.85Z"/><path d="M298.84,439.84c3.51-1.79,5.57-5,5.52-9.86s-2.1-7.83-5.61-9.55a2.46,2.46,0,0,0,.22-.17,5.77,5.77,0,0,0,.22-7.36c-1.63-1.91-3.31-3.76-5-5.64l-3.05-3.45-.23-.25c0,.15,0,.24,0,.34q0,14,0,28a7.29,7.29,0,0,0,2.08,5.4,3.8,3.8,0,0,1,.51.59c-.36-.16-.72-.29-1.06-.47-4-2.07-6.59-6.83-6.6-12.33q0-17.77,0-35.54v-.39l.28.29,15.79,17.87a9.94,9.94,0,0,1,1.71,9.12l-.13.44.27.15c3.16,1.79,5.11,4.8,5.47,9.22a13.38,13.38,0,0,1-3.05,9.94,9.31,9.31,0,0,1-7.06,3.66Z"/><path d="M316.39,403.52c-1,1.14-1.94,2.2-2.88,3.25q-2.55,2.91-5.12,5.8a5.7,5.7,0,0,0-1.51,3.93c-.35-.28-.69-.54-1-.84-.07-.06-.06-.31,0-.47a13.29,13.29,0,0,0-.59-6c-.12-.37-.27-.73-.45-1.2l16.67-18.87v23.49c0,4.14,0,8.28,0,12.42,0,5.93-3.07,11.12-7.51,12.77a.2.2,0,0,1-.17,0l.25-.25a7.45,7.45,0,0,0,2.36-5.87V403.52Z"/><text class="cls-4" transform="translate(100.33 528.06) scale(0.79 1)">BLUEMOON CABS</text></svg>